# xmcd CD database file
#
# Track frame offsets:
#	150
#	19078
#	38347
#
# Disc length: 791 seconds
#
# Revision: 0
# Processed by: cddbd v1.5PL3 Copyright (c) Steve Scherf et al.
# Submitted via: CDex 1.50
#
DISCID=14031503
DTITLE=monophonic - Dreams and Tools
DYEAR=2003
DGENRE=Rock
TTITLE0=Get your life
TTITLE1=never
TTITLE2=Dreams
EXTD=YEAR: 2003
EXTT0=
EXTT1=
EXTT2=
PLAYORDER=
